<svg width="429" height="394" viewBox="0 0 429 394" fill="none" xmlns="http://www.w3.org/2000/svg">
<path d="M201.32 76.8092C207.054 66.6097 221.738 66.6097 227.472 76.8092L293.431 194.144C299.052 204.143 291.826 216.495 280.355 216.495H148.437C136.966 216.495 129.741 204.143 135.361 194.144L201.32 76.8092Z" fill="#FF0A54"/>
<path d="M118.845 194.001C113.111 204.2 98.4269 204.2 92.6933 194.001L26.7343 76.6658C21.1135 66.6668 28.3393 54.3154 39.8099 54.3154H171.728C183.199 54.3154 190.424 66.6667 184.804 76.6657L118.845 194.001Z" fill="#FF477E"/>
<path d="M336.096 194.001C330.362 204.2 315.678 204.2 309.944 194.001L243.985 76.6658C238.364 66.6668 245.59 54.3154 257.061 54.3154H388.979C400.45 54.3154 407.675 66.6667 402.055 76.6657L336.096 194.001Z" fill="#FF477E"/>
<path d="M227.474 370.129C221.74 380.329 207.056 380.329 201.322 370.129L135.363 252.794C129.742 242.795 136.968 230.444 148.439 230.444H280.357C291.827 230.444 299.053 242.795 293.433 252.794L227.474 370.129Z" fill="#FF7096"/>
</svg>
