<svg width="347" height="66" viewBox="0 0 347 66" fill="none" xmlns="http://www.w3.org/2000/svg">
<path d="M60.5325 51.0001L76.7565 14.6001H85.0765L101.352 51.0001H92.5125L79.2005 18.8641H82.5285L69.1645 51.0001H60.5325ZM68.6445 43.2001L70.8805 36.8041H89.6005L91.8885 43.2001H68.6445ZM106.689 51.0001V14.6001H115.113V51.0001H106.689ZM134.151 51.4161C131.759 51.4161 129.454 51.1387 127.235 50.5841C125.051 49.9947 123.318 49.2667 122.035 48.4001L124.739 42.5761C126.022 43.3734 127.53 44.0321 129.263 44.5521C131.031 45.0374 132.765 45.2801 134.463 45.2801C136.335 45.2801 137.653 45.0547 138.415 44.6041C139.213 44.1534 139.611 43.5294 139.611 42.7321C139.611 42.0734 139.299 41.5881 138.675 41.2761C138.086 40.9294 137.289 40.6694 136.283 40.4961C135.278 40.3227 134.169 40.1494 132.955 39.9761C131.777 39.8027 130.581 39.5774 129.367 39.3001C128.154 38.9881 127.045 38.5374 126.039 37.9481C125.034 37.3587 124.219 36.5614 123.595 35.5561C123.006 34.5507 122.711 33.2507 122.711 31.6561C122.711 29.8881 123.214 28.3281 124.219 26.9761C125.259 25.6241 126.75 24.5667 128.691 23.8041C130.633 23.0067 132.955 22.6081 135.659 22.6081C137.566 22.6081 139.507 22.8161 141.483 23.2321C143.459 23.6481 145.106 24.2547 146.423 25.0521L143.719 30.8241C142.367 30.0267 140.998 29.4894 139.611 29.2121C138.259 28.9001 136.942 28.7441 135.659 28.7441C133.857 28.7441 132.539 28.9867 131.707 29.4721C130.875 29.9574 130.459 30.5814 130.459 31.3441C130.459 32.0374 130.754 32.5574 131.343 32.9041C131.967 33.2507 132.782 33.5281 133.787 33.7361C134.793 33.9441 135.885 34.1347 137.063 34.3081C138.277 34.4467 139.49 34.6721 140.703 34.9841C141.917 35.2961 143.009 35.7467 143.979 36.3361C144.985 36.8907 145.799 37.6707 146.423 38.6761C147.047 39.6467 147.359 40.9294 147.359 42.5241C147.359 44.2574 146.839 45.8001 145.799 47.1521C144.759 48.4694 143.251 49.5094 141.275 50.2721C139.334 51.0347 136.959 51.4161 134.151 51.4161ZM163.336 51.4161C160.944 51.4161 158.639 51.1387 156.42 50.5841C154.236 49.9947 152.503 49.2667 151.22 48.4001L153.924 42.5761C155.207 43.3734 156.715 44.0321 158.448 44.5521C160.216 45.0374 161.95 45.2801 163.648 45.2801C165.52 45.2801 166.838 45.0547 167.6 44.6041C168.398 44.1534 168.796 43.5294 168.796 42.7321C168.796 42.0734 168.484 41.5881 167.86 41.2761C167.271 40.9294 166.474 40.6694 165.468 40.4961C164.463 40.3227 163.354 40.1494 162.14 39.9761C160.962 39.8027 159.766 39.5774 158.552 39.3001C157.339 38.9881 156.23 38.5374 155.224 37.9481C154.219 37.3587 153.404 36.5614 152.78 35.5561C152.191 34.5507 151.896 33.2507 151.896 31.6561C151.896 29.8881 152.399 28.3281 153.404 26.9761C154.444 25.6241 155.935 24.5667 157.876 23.8041C159.818 23.0067 162.14 22.6081 164.844 22.6081C166.751 22.6081 168.692 22.8161 170.668 23.2321C172.644 23.6481 174.291 24.2547 175.608 25.0521L172.904 30.8241C171.552 30.0267 170.183 29.4894 168.796 29.2121C167.444 28.9001 166.127 28.7441 164.844 28.7441C163.042 28.7441 161.724 28.9867 160.892 29.4721C160.06 29.9574 159.644 30.5814 159.644 31.3441C159.644 32.0374 159.939 32.5574 160.528 32.9041C161.152 33.2507 161.967 33.5281 162.972 33.7361C163.978 33.9441 165.07 34.1347 166.248 34.3081C167.462 34.4467 168.675 34.6721 169.888 34.9841C171.102 35.2961 172.194 35.7467 173.164 36.3361C174.17 36.8907 174.984 37.6707 175.608 38.6761C176.232 39.6467 176.544 40.9294 176.544 42.5241C176.544 44.2574 176.024 45.8001 174.984 47.1521C173.944 48.4694 172.436 49.5094 170.46 50.2721C168.519 51.0347 166.144 51.4161 163.336 51.4161ZM183.109 51.0001V23.0241H191.221V51.0001H183.109ZM187.165 19.1241C185.675 19.1241 184.461 18.6907 183.525 17.8241C182.589 16.9574 182.121 15.8827 182.121 14.6001C182.121 13.3174 182.589 12.2427 183.525 11.3761C184.461 10.5094 185.675 10.0761 187.165 10.0761C188.656 10.0761 189.869 10.4921 190.805 11.3241C191.741 12.1214 192.209 13.1614 192.209 14.4441C192.209 15.7961 191.741 16.9227 190.805 17.8241C189.904 18.6907 188.691 19.1241 187.165 19.1241ZM209.722 51.4161C207.33 51.4161 205.025 51.1387 202.806 50.5841C200.622 49.9947 198.889 49.2667 197.606 48.4001L200.31 42.5761C201.593 43.3734 203.101 44.0321 204.834 44.5521C206.602 45.0374 208.335 45.2801 210.034 45.2801C211.906 45.2801 213.223 45.0547 213.986 44.6041C214.783 44.1534 215.182 43.5294 215.182 42.7321C215.182 42.0734 214.87 41.5881 214.246 41.2761C213.657 40.9294 212.859 40.6694 211.854 40.4961C210.849 40.3227 209.739 40.1494 208.526 39.9761C207.347 39.8027 206.151 39.5774 204.938 39.3001C203.725 38.9881 202.615 38.5374 201.61 37.9481C200.605 37.3587 199.79 36.5614 199.166 35.5561C198.577 34.5507 198.282 33.2507 198.282 31.6561C198.282 29.8881 198.785 28.3281 199.79 26.9761C200.83 25.6241 202.321 24.5667 204.262 23.8041C206.203 23.0067 208.526 22.6081 211.23 22.6081C213.137 22.6081 215.078 22.8161 217.054 23.2321C219.03 23.6481 220.677 24.2547 221.994 25.0521L219.29 30.8241C217.938 30.0267 216.569 29.4894 215.182 29.2121C213.83 28.9001 212.513 28.7441 211.23 28.7441C209.427 28.7441 208.11 28.9867 207.278 29.4721C206.446 29.9574 206.03 30.5814 206.03 31.3441C206.03 32.0374 206.325 32.5574 206.914 32.9041C207.538 33.2507 208.353 33.5281 209.358 33.7361C210.363 33.9441 211.455 34.1347 212.634 34.3081C213.847 34.4467 215.061 34.6721 216.274 34.9841C217.487 35.2961 218.579 35.7467 219.55 36.3361C220.555 36.8907 221.37 37.6707 221.994 38.6761C222.618 39.6467 222.93 40.9294 222.93 42.5241C222.93 44.2574 222.41 45.8001 221.37 47.1521C220.33 48.4694 218.822 49.5094 216.846 50.2721C214.905 51.0347 212.53 51.4161 209.722 51.4161ZM240.935 51.4161C237.642 51.4161 235.076 50.5841 233.239 48.9201C231.402 47.2214 230.483 44.7081 230.483 41.3801V16.8361H238.595V41.2761C238.595 42.4547 238.907 43.3734 239.531 44.0321C240.155 44.6561 241.004 44.9681 242.079 44.9681C243.362 44.9681 244.454 44.6214 245.355 43.9281L247.539 49.6481C246.707 50.2374 245.702 50.6881 244.523 51.0001C243.379 51.2774 242.183 51.4161 240.935 51.4161ZM226.167 29.8881V23.6481H245.563V29.8881H226.167ZM270.813 51.0001V45.5401L270.293 44.3441V34.5681C270.293 32.8347 269.755 31.4827 268.681 30.5121C267.641 29.5414 266.029 29.0561 263.845 29.0561C262.354 29.0561 260.881 29.2987 259.425 29.7841C258.003 30.2347 256.79 30.8587 255.785 31.6561L252.873 25.9881C254.398 24.9134 256.235 24.0814 258.385 23.4921C260.534 22.9027 262.718 22.6081 264.937 22.6081C269.201 22.6081 272.511 23.6134 274.869 25.6241C277.226 27.6347 278.405 30.7721 278.405 35.0361V51.0001H270.813ZM262.285 51.4161C260.101 51.4161 258.229 51.0521 256.669 50.3241C255.109 49.5614 253.913 48.5387 253.081 47.2561C252.249 45.9734 251.833 44.5347 251.833 42.9401C251.833 41.2761 252.231 39.8201 253.029 38.5721C253.861 37.3241 255.161 36.3534 256.929 35.6601C258.697 34.9321 261.002 34.5681 263.845 34.5681H271.281V39.3001H264.729C262.822 39.3001 261.505 39.6121 260.777 40.2361C260.083 40.8601 259.737 41.6401 259.737 42.5761C259.737 43.6161 260.135 44.4481 260.933 45.0721C261.765 45.6614 262.891 45.9561 264.313 45.9561C265.665 45.9561 266.878 45.6441 267.953 45.0201C269.027 44.3614 269.807 43.4081 270.293 42.1601L271.541 45.9041C270.951 47.7067 269.877 49.0761 268.317 50.0121C266.757 50.9481 264.746 51.4161 262.285 51.4161ZM304.311 22.6081C306.529 22.6081 308.505 23.0587 310.239 23.9601C312.007 24.8267 313.393 26.1787 314.399 28.0161C315.404 29.8187 315.907 32.1414 315.907 34.9841V51.0001H307.795V36.2321C307.795 33.9787 307.292 32.3147 306.287 31.2401C305.316 30.1654 303.929 29.6281 302.127 29.6281C300.844 29.6281 299.683 29.9054 298.643 30.4601C297.637 30.9801 296.84 31.7947 296.251 32.9041C295.696 34.0134 295.419 35.4347 295.419 37.1681V51.0001H287.307V23.0241H295.055V30.7721L293.599 28.4321C294.604 26.5601 296.043 25.1214 297.915 24.1161C299.787 23.1107 301.919 22.6081 304.311 22.6081ZM336.26 51.4161C332.966 51.4161 330.401 50.5841 328.564 48.9201C326.726 47.2214 325.808 44.7081 325.808 41.3801V16.8361H333.92V41.2761C333.92 42.4547 334.232 43.3734 334.856 44.0321C335.48 44.6561 336.329 44.9681 337.404 44.9681C338.686 44.9681 339.778 44.6214 340.68 43.9281L342.864 49.6481C342.032 50.2374 341.026 50.6881 339.848 51.0001C338.704 51.2774 337.508 51.4161 336.26 51.4161ZM321.492 29.8881V23.6481H340.888V29.8881H321.492Z" fill="#9C7CE2"/>
<path d="M62.5235 53.0001L79.0595 15.9001H87.5395L104.128 53.0001H95.1185L81.5505 20.2461H84.9425L71.3215 53.0001H62.5235ZM70.7915 45.0501L73.0705 38.5311H92.1505L94.4825 45.0501H70.7915ZM109.038 53.0001V15.9001H117.624V53.0001H109.038ZM136.498 53.4241C134.06 53.4241 131.711 53.1414 129.449 52.5761C127.223 51.9754 125.457 51.2334 124.149 50.3501L126.905 44.4141C128.213 45.2267 129.75 45.8981 131.516 46.4281C133.318 46.9227 135.085 47.1701 136.816 47.1701C138.724 47.1701 140.067 46.9404 140.844 46.4811C141.657 46.0217 142.063 45.3857 142.063 44.5731C142.063 43.9017 141.745 43.4071 141.109 43.0891C140.509 42.7357 139.696 42.4707 138.671 42.2941C137.647 42.1174 136.516 41.9407 135.279 41.7641C134.078 41.5874 132.859 41.3577 131.622 41.0751C130.386 40.7571 129.255 40.2977 128.23 39.6971C127.206 39.0964 126.375 38.2837 125.739 37.2591C125.139 36.2344 124.838 34.9094 124.838 33.2841C124.838 31.4821 125.351 29.8921 126.375 28.5141C127.435 27.1361 128.955 26.0584 130.933 25.2811C132.912 24.4684 135.279 24.0621 138.035 24.0621C139.979 24.0621 141.957 24.2741 143.971 24.6981C145.985 25.1221 147.664 25.7404 149.006 26.5531L146.25 32.4361C144.872 31.6234 143.477 31.0757 142.063 30.7931C140.685 30.4751 139.343 30.3161 138.035 30.3161C136.198 30.3161 134.855 30.5634 134.007 31.0581C133.159 31.5527 132.735 32.1887 132.735 32.9661C132.735 33.6727 133.036 34.2027 133.636 34.5561C134.272 34.9094 135.103 35.1921 136.127 35.4041C137.152 35.6161 138.265 35.8104 139.466 35.9871C140.703 36.1284 141.94 36.3581 143.176 36.6761C144.413 36.9941 145.526 37.4534 146.515 38.0541C147.54 38.6194 148.37 39.4144 149.006 40.4391C149.642 41.4284 149.96 42.7357 149.96 44.3611C149.96 46.1277 149.43 47.7001 148.37 49.0781C147.31 50.4207 145.773 51.4807 143.759 52.2581C141.781 53.0354 139.36 53.4241 136.498 53.4241ZM165.714 53.4241C163.276 53.4241 160.927 53.1414 158.665 52.5761C156.439 51.9754 154.673 51.2334 153.365 50.3501L156.121 44.4141C157.429 45.2267 158.966 45.8981 160.732 46.4281C162.534 46.9227 164.301 47.1701 166.032 47.1701C167.94 47.1701 169.283 46.9404 170.06 46.4811C170.873 46.0217 171.279 45.3857 171.279 44.5731C171.279 43.9017 170.961 43.4071 170.325 43.0891C169.725 42.7357 168.912 42.4707 167.887 42.2941C166.863 42.1174 165.732 41.9407 164.495 41.7641C163.294 41.5874 162.075 41.3577 160.838 41.0751C159.602 40.7571 158.471 40.2977 157.446 39.6971C156.422 39.0964 155.591 38.2837 154.955 37.2591C154.355 36.2344 154.054 34.9094 154.054 33.2841C154.054 31.4821 154.567 29.8921 155.591 28.5141C156.651 27.1361 158.171 26.0584 160.149 25.2811C162.128 24.4684 164.495 24.0621 167.251 24.0621C169.195 24.0621 171.173 24.2741 173.187 24.6981C175.201 25.1221 176.88 25.7404 178.222 26.5531L175.466 32.4361C174.088 31.6234 172.693 31.0757 171.279 30.7931C169.901 30.4751 168.559 30.3161 167.251 30.3161C165.414 30.3161 164.071 30.5634 163.223 31.0581C162.375 31.5527 161.951 32.1887 161.951 32.9661C161.951 33.6727 162.252 34.2027 162.852 34.5561C163.488 34.9094 164.319 35.1921 165.343 35.4041C166.368 35.6161 167.481 35.8104 168.682 35.9871C169.919 36.1284 171.156 36.3581 172.392 36.6761C173.629 36.9941 174.742 37.4534 175.731 38.0541C176.756 38.6194 177.586 39.4144 178.222 40.4391C178.858 41.4284 179.176 42.7357 179.176 44.3611C179.176 46.1277 178.646 47.7001 177.586 49.0781C176.526 50.4207 174.989 51.4807 172.975 52.2581C170.997 53.0354 168.576 53.4241 165.714 53.4241ZM185.338 53.0001V24.4861H193.606V53.0001H185.338ZM189.472 20.5111C187.952 20.5111 186.716 20.0694 185.762 19.1861C184.808 18.3027 184.331 17.2074 184.331 15.9001C184.331 14.5927 184.808 13.4974 185.762 12.6141C186.716 11.7307 187.952 11.2891 189.472 11.2891C190.991 11.2891 192.228 11.7131 193.182 12.5611C194.136 13.3737 194.613 14.4337 194.613 15.7411C194.613 17.1191 194.136 18.2674 193.182 19.1861C192.263 20.0694 191.026 20.5111 189.472 20.5111ZM211.932 53.4241C209.494 53.4241 207.144 53.1414 204.883 52.5761C202.657 51.9754 200.89 51.2334 199.583 50.3501L202.339 44.4141C203.646 45.2267 205.183 45.8981 206.95 46.4281C208.752 46.9227 210.519 47.1701 212.25 47.1701C214.158 47.1701 215.501 46.9404 216.278 46.4811C217.091 46.0217 217.497 45.3857 217.497 44.5731C217.497 43.9017 217.179 43.4071 216.543 43.0891C215.942 42.7357 215.13 42.4707 214.105 42.2941C213.08 42.1174 211.95 41.9407 210.713 41.7641C209.512 41.5874 208.293 41.3577 207.056 41.0751C205.819 40.7571 204.689 40.2977 203.664 39.6971C202.639 39.0964 201.809 38.2837 201.173 37.2591C200.572 36.2344 200.272 34.9094 200.272 33.2841C200.272 31.4821 200.784 29.8921 201.809 28.5141C202.869 27.1361 204.388 26.0584 206.367 25.2811C208.346 24.4684 210.713 24.0621 213.469 24.0621C215.412 24.0621 217.391 24.2741 219.405 24.6981C221.419 25.1221 223.097 25.7404 224.44 26.5531L221.684 32.4361C220.306 31.6234 218.91 31.0757 217.497 30.7931C216.119 30.4751 214.776 30.3161 213.469 30.3161C211.632 30.3161 210.289 30.5634 209.441 31.0581C208.593 31.5527 208.169 32.1887 208.169 32.9661C208.169 33.6727 208.469 34.2027 209.07 34.5561C209.706 34.9094 210.536 35.1921 211.561 35.4041C212.586 35.6161 213.699 35.8104 214.9 35.9871C216.137 36.1284 217.373 36.3581 218.61 36.6761C219.847 36.9941 220.96 37.4534 221.949 38.0541C222.974 38.6194 223.804 39.4144 224.44 40.4391C225.076 41.4284 225.394 42.7357 225.394 44.3611C225.394 46.1277 224.864 47.7001 223.804 49.0781C222.744 50.4207 221.207 51.4807 219.193 52.2581C217.214 53.0354 214.794 53.4241 211.932 53.4241ZM243.215 53.4241C239.859 53.4241 237.244 52.5761 235.371 50.8801C233.499 49.1487 232.562 46.5871 232.562 43.1951V18.1791H240.83V43.0891C240.83 44.2904 241.148 45.2267 241.784 45.8981C242.42 46.5341 243.286 46.8521 244.381 46.8521C245.689 46.8521 246.802 46.4987 247.72 45.7921L249.946 51.6221C249.098 52.2227 248.074 52.6821 246.872 53.0001C245.706 53.2827 244.487 53.4241 243.215 53.4241ZM228.163 31.4821V25.1221H247.932V31.4821H228.163ZM273.138 53.0001V47.4351L272.608 46.2161V36.2521C272.608 34.4854 272.06 33.1074 270.965 32.1181C269.905 31.1287 268.262 30.6341 266.036 30.6341C264.516 30.6341 263.015 30.8814 261.531 31.3761C260.082 31.8354 258.845 32.4714 257.821 33.2841L254.853 27.5071C256.407 26.4117 258.28 25.5637 260.471 24.9631C262.661 24.3624 264.887 24.0621 267.149 24.0621C271.495 24.0621 274.869 25.0867 277.272 27.1361C279.674 29.1854 280.876 32.3831 280.876 36.7291V53.0001H273.138ZM264.446 53.4241C262.22 53.4241 260.312 53.0531 258.722 52.3111C257.132 51.5337 255.913 50.4914 255.065 49.1841C254.217 47.8767 253.793 46.4104 253.793 44.7851C253.793 43.0891 254.199 41.6051 255.012 40.3331C255.86 39.0611 257.185 38.0717 258.987 37.3651C260.789 36.6231 263.138 36.2521 266.036 36.2521H273.615V41.0751H266.937C264.993 41.0751 263.651 41.3931 262.909 42.0291C262.202 42.6651 261.849 43.4601 261.849 44.4141C261.849 45.4741 262.255 46.3221 263.068 46.9581C263.916 47.5587 265.064 47.8591 266.513 47.8591C267.891 47.8591 269.127 47.5411 270.223 46.9051C271.318 46.2337 272.113 45.2621 272.608 43.9901L273.88 47.8061C273.279 49.6434 272.184 51.0391 270.594 51.9931C269.004 52.9471 266.954 53.4241 264.446 53.4241ZM306.75 24.0621C309.011 24.0621 311.025 24.5214 312.792 25.4401C314.594 26.3234 316.007 27.7014 317.032 29.5741C318.056 31.4114 318.569 33.7787 318.569 36.6761V53.0001H310.301V37.9481C310.301 35.6514 309.788 33.9554 308.764 32.8601C307.774 31.7647 306.361 31.2171 304.524 31.2171C303.216 31.2171 302.033 31.4997 300.973 32.0651C299.948 32.5951 299.135 33.4254 298.535 34.5561C297.969 35.6867 297.687 37.1354 297.687 38.9021V53.0001H289.419V24.4861H297.316V32.3831L295.832 29.9981C296.856 28.0901 298.323 26.6237 300.231 25.5991C302.139 24.5744 304.312 24.0621 306.75 24.0621ZM338.783 53.4241C335.426 53.4241 332.812 52.5761 330.939 50.8801C329.066 49.1487 328.13 46.5871 328.13 43.1951V18.1791H336.398V43.0891C336.398 44.2904 336.716 45.2267 337.352 45.8981C337.988 46.5341 338.854 46.8521 339.949 46.8521C341.256 46.8521 342.369 46.4987 343.288 45.7921L345.514 51.6221C344.666 52.2227 343.641 52.6821 342.44 53.0001C341.274 53.2827 340.055 53.4241 338.783 53.4241ZM323.731 31.4821V25.1221H343.5V31.4821H323.731Z" fill="#F9F9F9"/>
<path d="M32.6293 12.0151C33.784 10.0151 36.6708 10.0151 37.8255 12.0151L47.6798 29.0833C48.8345 31.0833 47.3911 33.5833 45.0817 33.5833H25.3731C23.0637 33.5833 21.6203 31.0833 22.775 29.0833L32.6293 12.0151Z" fill="#9C7CE2"/>
<path d="M19.9771 30.2576C18.8224 32.2576 15.9356 32.2576 14.7809 30.2576L4.92663 13.1894C3.77193 11.1894 5.2153 8.68939 7.5247 8.68939H27.2333C29.5427 8.68939 30.9861 11.1894 29.8314 13.1894L19.9771 30.2576Z" fill="#9C7CE2"/>
<path d="M55.6739 30.2576C54.5192 32.2576 51.6324 32.2576 50.4777 30.2576L40.6234 13.1894C39.4687 11.1894 40.9121 8.68939 43.2215 8.68939H62.9301C65.2395 8.68939 66.6829 11.1894 65.5282 13.1894L55.6739 30.2576Z" fill="#9C7CE2"/>
<path d="M37.8252 57.5C36.6705 59.5 33.7838 59.5 32.6291 57.5L22.7748 40.4318C21.6201 38.4318 23.0634 35.9318 25.3728 35.9318H45.0815C47.3909 35.9318 48.8343 38.4318 47.6796 40.4318L37.8252 57.5Z" fill="#9C7CE2"/>
</svg>
