<svg width="1276" height="413" viewBox="0 0 1276 413" fill="none" xmlns="http://www.w3.org/2000/svg">
<path d="M514.935 125.203V279.563H606.939V329.998H457.775V125.203H514.935ZM788.052 174.109V267.642C788.052 281.703 784.791 293.725 778.27 303.71C771.953 313.695 763.191 321.337 751.983 326.635C740.775 331.933 727.938 334.583 713.469 334.583C699.001 334.583 686.164 331.933 674.956 326.635C663.748 321.337 654.884 313.695 648.363 303.71C642.046 293.725 638.887 281.703 638.887 267.642V174.109H691.462L691.767 253.582C691.767 264.178 693.398 271.921 696.658 276.812C700.122 281.703 705.726 284.148 713.469 284.148C721.213 284.148 726.715 281.703 729.975 276.812C733.44 271.921 735.172 264.178 735.172 253.582L735.477 174.109H788.052ZM875.63 174.109V194.283C880.521 187.558 885.717 181.75 891.219 176.86C896.721 171.969 904.668 169.524 915.061 169.524C925.454 169.524 934.725 171.969 942.876 176.86C951.028 181.547 957.446 188.577 962.133 197.951C967.024 189.8 973.443 183.075 981.39 177.777C989.541 172.275 998.609 169.524 1008.59 169.524C1024.49 169.524 1037.43 174.924 1047.41 185.724C1057.6 196.524 1062.7 212.521 1062.7 233.713V329.998H1010.12L1009.82 241.966C1009.82 234.223 1007.78 228.823 1003.7 225.766C999.832 222.506 995.247 220.875 989.949 220.875C985.262 220.875 981.186 222.302 977.722 225.155C974.462 228.008 971.609 231.268 969.164 234.936V329.998H916.589L916.284 241.966C916.284 234.223 914.246 228.823 910.17 225.766C906.299 222.506 901.714 220.875 896.416 220.875C891.729 220.875 887.755 222.404 884.495 225.46C881.438 228.313 878.483 231.778 875.63 235.853V329.998H823.056V174.109H875.63ZM1157.31 169.524C1165.46 169.524 1173.4 171.358 1181.15 175.026C1189.09 178.49 1195.62 182.973 1200.71 188.475V174.109H1253.28V329.998H1200.71V304.016C1196.84 312.575 1190.93 319.809 1182.98 325.718C1175.03 331.628 1165.46 334.583 1154.25 334.583C1142.63 334.583 1131.73 331.628 1121.54 325.718C1111.35 319.809 1103 310.741 1096.48 298.514C1090.16 286.084 1087 270.495 1087 251.748C1087 234.223 1090.16 219.347 1096.48 207.121C1103 194.894 1111.56 185.622 1122.15 179.305C1132.95 172.784 1144.67 169.524 1157.31 169.524ZM1168.31 220.875C1160.77 220.875 1154.45 223.932 1149.36 230.045C1144.47 236.159 1142.02 243.393 1142.02 251.748C1142.02 260.102 1144.57 267.133 1149.66 272.838C1154.76 278.544 1161.48 281.397 1169.84 281.397C1174.32 281.397 1178.91 280.276 1183.59 278.035C1188.28 275.589 1192.25 272.023 1195.51 267.336C1198.98 262.446 1200.71 256.231 1200.71 248.691V233.713C1196.23 230.045 1191.13 226.989 1185.43 224.543C1179.93 222.098 1174.22 220.875 1168.31 220.875Z" fill="#060606"/>
<path d="M201.32 76.8092C207.054 66.6097 221.738 66.6097 227.472 76.8092L293.431 194.144C299.052 204.143 291.826 216.495 280.355 216.495H148.437C136.966 216.495 129.741 204.143 135.361 194.144L201.32 76.8092Z" fill="#FF0A54"/>
<path d="M118.845 194.001C113.111 204.2 98.4269 204.2 92.6933 194.001L26.7343 76.6658C21.1135 66.6668 28.3393 54.3154 39.8099 54.3154H171.728C183.199 54.3154 190.424 66.6667 184.804 76.6657L118.845 194.001Z" fill="#FF477E"/>
<path d="M336.096 194.001C330.362 204.2 315.678 204.2 309.944 194.001L243.985 76.6658C238.364 66.6668 245.59 54.3154 257.061 54.3154H388.979C400.45 54.3154 407.675 66.6667 402.055 76.6657L336.096 194.001Z" fill="#FF477E"/>
<path d="M227.474 370.129C221.74 380.329 207.056 380.329 201.322 370.129L135.363 252.794C129.742 242.795 136.968 230.444 148.439 230.444H280.357C291.827 230.444 299.053 242.795 293.433 252.794L227.474 370.129Z" fill="#FF7096"/>
</svg>
